<?xml version="1.0" encoding="UTF-8" standalone="no"?>
<svg width="20px" height="19px" viewBox="0 0 20 19" version="1.1" xmlns="http://www.w3.org/2000/svg" xmlns:xlink="http://www.w3.org/1999/xlink" xmlns:sketch="http://www.bohemiancoding.com/sketch/ns">
    <!-- Generator: Sketch 3.3.3 (12081) - http://www.bohemiancoding.com/sketch -->
    <title>icn-thumbsup-green</title>
    <desc>Created with Sketch.</desc>
    <defs></defs>
    <g id="Page-1" stroke="none" stroke-width="1" fill="none" fill-rule="evenodd" sketch:type="MSPage">
        <g id="icn-thumbsup-green" sketch:type="MSLayerGroup" fill="#82A12E">
            <g id="Desktop-TBS-page" sketch:type="MSShapeGroup">
                <g id="assets">
                    <path d="M18.3044717,6.94479667 L12.9698375,6.94479667 L13.425935,4.94918667 L13.425935,2.5545525 C13.425935,1.67211417 12.6976425,0.558943333 11.7995933,0.558943333 L10.9864225,0.558943333 C10.3708133,0.558943333 9.80739833,1.09991833 9.53227667,1.64089417 L7.97178833,4.8057725 L5.62105692,7.93308917 C5.40983742,8.20869917 5.29569108,8.59260167 5.29520325,8.938455 L5.29520325,6.94479667 L0.416666667,6.94479667 L0.416666667,16.5233333 L5.29520325,16.5233333 L5.29520325,15.3272358 C5.29617883,16.2086992 6.02398375,16.5233333 6.921545,16.5233333 L7.90788583,16.5233333 C7.90788583,16.5233333 9.92105667,18.1199183 10.17374,18.1199183 L14.2391058,18.1199183 C14.7830083,18.1199183 15.290325,17.6535775 15.5917883,17.2091867 L19.45374,11.7155283 C19.7586175,11.4160167 19.930325,10.9604067 19.930325,10.5369917 L19.930325,8.94040667 C19.930325,8.0579675 19.2020325,6.94479667 18.3044717,6.94479667 L18.3044717,6.94479667 L18.3044717,6.94479667 Z M18.3044717,10.5369917 L14.2391058,16.5233333 L10.75374,16.5233333 L8.54739833,14.9272358 L6.921545,14.9272358 L6.921545,8.94040667 L9.36056917,5.54772333 L10.9864225,2.15552833 L11.7995933,2.15552833 L11.7995933,4.94918667 L10.9864225,8.54089417 L18.3044717,8.54089417 L18.3044717,10.5369917 L18.3044717,10.5369917 Z" id="icn-thumbsup-green"></path>
                </g>
            </g>
        </g>
    </g>
</svg>