<?xml version="1.0" encoding="UTF-8" standalone="no"?>
<svg width="20px" height="19px" viewBox="0 0 20 19" version="1.1" xmlns="http://www.w3.org/2000/svg" xmlns:xlink="http://www.w3.org/1999/xlink" xmlns:sketch="http://www.bohemiancoding.com/sketch/ns">
    <!-- Generator: Sketch 3.3.3 (12081) - http://www.bohemiancoding.com/sketch -->
    <title>icn-thumbsdown-red</title>
    <desc>Created with Sketch.</desc>
    <defs></defs>
    <g id="Page-1" stroke="none" stroke-width="1" fill="none" fill-rule="evenodd" sketch:type="MSPage">
        <g id="icn-thumbsdown-red" sketch:type="MSLayerGroup" fill="#CD2200">
            <g id="Desktop-TBS-page" sketch:type="MSShapeGroup">
                <g id="assets">
                    <path d="M18.00028,11.7395097 L12.7513936,11.7395097 L13.20016,13.7314337 L13.20016,16.1216449 C13.20016,17.0024544 12.4835736,18.1135689 11.59996,18.1135689 L10.79986,18.1135689 C10.1941456,18.1135689 9.6397872,17.5735925 9.3690872,17.0336161 L7.8336824,13.8745836 L5.520736,10.7530422 C5.3129112,10.477942 5.2006,10.0947483 5.20012,9.74953348 L5.20012,11.7395097 L0.4,11.7395097 L0.4,2.17866482 L5.20012,2.17866482 L5.20012,3.37255267 C5.20108,2.49271786 5.9171864,2.17866482 6.80032,2.17866482 L7.7708072,2.17866482 C7.7708072,2.17866482 9.7516184,0.585028088 10.00024,0.585028088 L14.00026,0.585028088 C14.53542,0.585028088 15.0345824,1.05050824 15.3312,1.4940777 L19.1310752,6.97758937 C19.4310528,7.27654888 19.6,7.73131716 19.6,8.1539498 L19.6,9.74758572 C19.6,10.6283952 18.8834136,11.7395097 18.00028,11.7395097 L18.00028,11.7395097 L18.00028,11.7395097 Z M18.00028,8.1539498 L14.00026,2.17866482 L10.5709168,2.17866482 L8.40004,3.77181461 L6.80032,3.77181461 L6.80032,9.74758572 L9.20014,13.1340024 L10.79986,16.5199321 L11.59996,16.5199321 L11.59996,13.7314337 L10.79986,10.1463599 L18.00028,10.1463599 L18.00028,8.1539498 L18.00028,8.1539498 Z" id="icn-thumbsdown-hover"></path>
                </g>
            </g>
        </g>
    </g>
</svg>