<?xml version="1.0" encoding="UTF-8" standalone="no"?>
<svg width="20px" height="19px" viewBox="0 0 20 19" version="1.1" xmlns="http://www.w3.org/2000/svg" xmlns:xlink="http://www.w3.org/1999/xlink" xmlns:sketch="http://www.bohemiancoding.com/sketch/ns">
    <!-- Generator: Sketch 3.3.3 (12081) - http://www.bohemiancoding.com/sketch -->
    <title>icn-thumbsup-default</title>
    <desc>Created with Sketch.</desc>
    <defs></defs>
    <g id="Page-1" stroke="none" stroke-width="1" fill="none" fill-rule="evenodd" sketch:type="MSPage">
        <g id="icn-thumbsup-default" sketch:type="MSLayerGroup" fill="#999999">
            <g id="Desktop-TBS-page" sketch:type="MSShapeGroup">
                <g id="assets">
                    <path d="M18.3044717,6.94479675 L12.9698375,6.94479675 L13.425935,4.949187 L13.425935,2.55455283 C13.425935,1.67211383 12.6976425,0.558943083 11.7995933,0.558943083 L10.9864225,0.558943083 C10.3708133,0.558943083 9.80739833,1.09991867 9.53227667,1.64089433 L7.97178833,4.80577233 L5.62105692,7.93308942 C5.40983742,8.20869917 5.29569108,8.59260167 5.29520325,8.93845525 L5.29520325,6.94479675 L0.416666667,6.94479675 L0.416666667,16.5233333 L5.29520325,16.5233333 L5.29520325,15.3272357 C5.29617883,16.2086992 6.02398375,16.5233333 6.921545,16.5233333 L7.90788583,16.5233333 C7.90788583,16.5233333 9.92105667,18.1199187 10.17374,18.1199187 L14.2391058,18.1199187 C14.7830083,18.1199187 15.290325,17.6535773 15.5917883,17.209187 L19.45374,11.7155284 C19.7586175,11.4160162 19.930325,10.9604065 19.930325,10.5369918 L19.930325,8.9404065 C19.930325,8.0579675 19.2020325,6.94479675 18.3044717,6.94479675 L18.3044717,6.94479675 L18.3044717,6.94479675 Z M18.3044717,10.5369918 L14.2391058,16.5233333 L10.75374,16.5233333 L8.54739833,14.9272357 L6.921545,14.9272357 L6.921545,8.9404065 L9.36056917,5.54772358 L10.9864225,2.15552842 L11.7995933,2.15552842 L11.7995933,4.949187 L10.9864225,8.54089433 L18.3044717,8.54089433 L18.3044717,10.5369918 L18.3044717,10.5369918 Z" id="icn-thumbsup-default"></path>
                </g>
            </g>
        </g>
    </g>
</svg>