<?xml version="1.0" encoding="UTF-8" standalone="no"?>
<svg width="20px" height="18px" viewBox="0 0 20 18" version="1.1" xmlns="http://www.w3.org/2000/svg" xmlns:xlink="http://www.w3.org/1999/xlink" xmlns:sketch="http://www.bohemiancoding.com/sketch/ns">
    <!-- Generator: Sketch 3.3.3 (12081) - http://www.bohemiancoding.com/sketch -->
    <title>icn-thumbsdown-default</title>
    <desc>Created with Sketch.</desc>
    <defs></defs>
    <g id="Page-1" stroke="none" stroke-width="1" fill="none" fill-rule="evenodd" sketch:type="MSPage">
        <g id="icn-thumbsdown-default" sketch:type="MSLayerGroup" fill="#999999">
            <g id="Desktop-TBS-page" sketch:type="MSShapeGroup">
                <g id="assets">
                    <path d="M18.00028,11.5281604 L12.7513936,11.5281604 L13.20016,13.4842231 L13.20016,15.8314028 C13.20016,16.6963545 12.4835736,17.7874656 11.59996,17.7874656 L10.79986,17.7874656 C10.1941456,17.7874656 9.6397872,17.2572105 9.3690872,16.7269554 L7.8336824,13.6247957 L5.520736,10.5594526 C5.3129112,10.2893047 5.2006,9.91301004 5.20012,9.57401016 L5.20012,11.5281604 L0.4,11.5281604 L0.4,2.13944157 L5.20012,2.13944157 L5.20012,3.31183609 C5.20108,2.44784063 5.9171864,2.13944157 6.80032,2.13944157 L7.7708072,2.13944157 C7.7708072,2.13944157 9.7516184,0.574495749 10.00024,0.574495749 L14.00026,0.574495749 C14.53542,0.574495749 15.0345824,1.03159574 15.3312,1.4671795 L19.1310752,6.85197019 C19.4310528,7.14554697 19.6,7.59212793 19.6,8.00715173 L19.6,9.57209754 C19.6,10.4370493 18.8834136,11.5281604 18.00028,11.5281604 L18.00028,11.5281604 L18.00028,11.5281604 Z M18.00028,8.00715173 L14.00026,2.13944157 L10.5709168,2.13944157 L8.40004,3.70390929 L6.80032,3.70390929 L6.80032,9.57209754 L9.20014,12.8975477 L10.79986,16.2225197 L11.59996,16.2225197 L11.59996,13.4842231 L10.79986,9.96369265 L18.00028,9.96369265 L18.00028,8.00715173 L18.00028,8.00715173 Z" id="icn-thumbsdown-default"></path>
                </g>
            </g>
        </g>
    </g>
</svg>